<?xml version="1.0" encoding="UTF-8" standalone="no"?>
<!-- Created with Inkscape (http://www.inkscape.org/) -->

<svg
   xmlns:dc="http://purl.org/dc/elements/1.1/"
   xmlns:cc="http://creativecommons.org/ns#"
   xmlns:rdf="http://www.w3.org/1999/02/22-rdf-syntax-ns#"
   xmlns:svg="http://www.w3.org/2000/svg"
   xmlns="http://www.w3.org/2000/svg"
   xmlns:sodipodi="http://sodipodi.sourceforge.net/DTD/sodipodi-0.dtd"
   xmlns:inkscape="http://www.inkscape.org/namespaces/inkscape"
   width="210mm"
   height="297mm"
   viewBox="0 0 210 297"
   version="1.1"
   id="svg8"
   inkscape:version="0.92.3 (2405546, 2018-03-11)"
   sodipodi:docname="fond.svg">
  <sodipodi:namedview
     id="base"
     pagecolor="#ffffff"
     bordercolor="#666666"
     borderopacity="1.0"
     inkscape:pageopacity="0.0"
     inkscape:pageshadow="2"
     inkscape:zoom="0.7"
     inkscape:cx="257.78896"
     inkscape:cy="817.22503"
     inkscape:document-units="mm"
     inkscape:current-layer="layer1"
     showgrid="false"
     inkscape:window-width="2560"
     inkscape:window-height="1412"
     inkscape:window-x="2560"
     inkscape:window-y="0"
     inkscape:window-maximized="1" />
  <defs
     id="defs2" />
  <metadata
     id="metadata5">
    <rdf:RDF>
      <cc:Work
         rdf:about="">
        <dc:format>image/svg+xml</dc:format>
        <dc:type
           rdf:resource="http://purl.org/dc/dcmitype/StillImage" />
        <dc:title></dc:title>
      </cc:Work>
    </rdf:RDF>
  </metadata>
  <g
     id="layer1"
     inkscape:groupmode="layer"
     inkscape:label="Calque 1">
    <path
       style="opacity:0.577;fill:#5d8aa8;fill-opacity:1;fill-rule:evenodd;stroke:none;stroke-width:4.28571415;stroke-miterlimit:4;stroke-dasharray:none;stroke-opacity:1"
       d="m 590.164,1119.891 c 0.0339,-2.4572 19.74881,-82.7497 20.50354,-83.5044 0.63228,-0.6323 176.82893,-27.5671 180.33278,-27.5671 1.67549,0 1.99618,9.0652 1.99618,56.4286 v 56.4286 H 691.56792 c -80.20362,0 -101.42341,-0.3737 -101.40392,-1.7857 z"
       id="path6261"
       inkscape:connector-curvature="0"
       transform="scale(0.26458333)" />
    <path
       style="opacity:0.577;fill:#5d8aa8;fill-opacity:0.70980394;fill-rule:evenodd;stroke:none;stroke-width:4.28571415;stroke-miterlimit:4;stroke-dasharray:none;stroke-opacity:1"
       d="m 335.91097,1114.891 c 0.0315,-3.7322 0.93013,-33.7022 1.99689,-66.6001 1.77865,-54.85198 2.15908,-60.02899 4.58553,-62.40139 1.45528,-1.42286 8.99787,-7.65042 16.76132,-13.83901 l 14.11535,-11.25199 103.74179,28.30947 c 57.05799,15.57022 108.61589,29.63052 114.5731,31.24512 10.31593,2.7959 10.96612,3.2201 13.66385,8.9153 l 2.83252,5.9797 -10.5966,43.2143 -10.59658,43.2143 H 461.42089 335.85364 Z"
       id="path6263"
       inkscape:connector-curvature="0"
       transform="scale(0.26458333)" />
    <path
       style="opacity:0.577;fill:#5d8aa8;fill-opacity:0.87450981;fill-rule:evenodd;stroke:none;stroke-width:4.28571415;stroke-miterlimit:4;stroke-dasharray:none;stroke-opacity:1"
       d="m 159.39564,1119.891 c -3.74459,-10.2238 -43.4783,-164.55767 -42.58995,-165.42817 1.63322,-1.60041 84.87199,-37.54807 86.9446,-37.54807 0.9143,0 31.42249,15.97297 67.79596,35.49548 l 66.1336,35.49548 -0.89628,25.09978 c -0.49296,13.8048 -1.24659,39.8855 -1.67472,57.9569 -0.42814,18.0714 -1.12973,36.875 -1.5591,41.7857 l -0.78067,8.9286 h -86.3597 c -67.78655,0 -86.50036,-0.3841 -87.01374,-1.7857 z"
       id="path6265"
       inkscape:connector-curvature="0"
       transform="scale(0.26458333)" />
    <path
       style="opacity:0.577;fill:#5d8aa8;fill-opacity:0.58431375;fill-rule:evenodd;stroke:none;stroke-width:4.28571415;stroke-miterlimit:4;stroke-dasharray:none;stroke-opacity:1"
       d="m 2.9964948,1024.5338 c 0,-53.42856 0.5459006,-97.14285 1.2131125,-97.14285 1.8695224,0 107.6717527,26.98011 108.3116727,27.62003 0.31017,0.31016 10.21353,36.81183 22.00749,81.11482 11.79395,44.303 21.7816,81.6759 22.19477,83.0509 0.70895,2.3594 -3.59306,2.5 -76.487919,2.5 H 2.9964948 Z"
       id="path6267"
       inkscape:connector-curvature="0"
       transform="scale(0.26458333)" />
    <path
       style="opacity:0.577;fill:#5d8aa8;fill-opacity:0.70980394;fill-rule:evenodd;stroke:none;stroke-width:4.28571415;stroke-miterlimit:4;stroke-dasharray:none;stroke-opacity:1"
       d="M 67.282209,940.73334 C 41.746495,934.26189 16.835781,927.89819 11.925066,926.59179 l -8.9285712,-2.37525 v -91.98423 c 0,-76.74122 0.3229475,-91.98422 1.9488339,-91.98422 1.0718586,0 42.3754303,-2.54929 91.7857143,-5.66508 49.410277,-3.1158 93.340077,-5.84794 97.621777,-6.07143 l 7.78489,-0.40634 14.9709,23.33688 14.97091,23.33689 -12.5437,60.23454 c -6.89904,33.129 -13.48818,64.4663 -14.64255,69.63846 l -2.09886,9.4039 -44.54182,19.22186 -44.54181,19.22184 z"
       id="path6269"
       inkscape:connector-curvature="0"
       transform="scale(0.26458333)" />
    <path
       style="opacity:0.577;fill:#5d8aa8;fill-opacity:0.64705884;fill-rule:evenodd;stroke:none;stroke-width:4.28571415;stroke-miterlimit:4;stroke-dasharray:none;stroke-opacity:1"
       d="m 272.28221,950.13707 c -36.14286,-19.44955 -65.86361,-36.22048 -66.04611,-37.26875 -0.40111,-2.3039 27.42084,-135.18544 28.53829,-136.30289 0.43214,-0.43213 24.79818,0.65113 54.14676,2.40726 l 53.36106,3.19295 6.42857,6.59696 c 3.53572,3.62833 19.0389,21.40799 34.45154,39.51037 l 28.02296,32.9134 -19.45327,48.65134 -19.45327,48.65136 -15.71254,12.53607 c -8.64192,6.89484 -16.35542,12.97227 -17.14113,13.5054 -0.78572,0.53313 -31,-14.94393 -67.14286,-34.39347 z"
       id="path6271"
       inkscape:connector-curvature="0"
       transform="scale(0.26458333)" />
    <path
       style="opacity:0.577;fill:#5d8aa8;fill-opacity:0.59607846;fill-rule:evenodd;stroke:none;stroke-width:4.28571415;stroke-miterlimit:4;stroke-dasharray:none;stroke-opacity:1"
       d="m 489.6175,990.20569 c -59.60845,-16.3518 -109.85014,-30.09977 -111.6482,-30.55106 -3.19113,-0.80092 -2.80721,-1.97591 16.07784,-49.20581 l 19.34704,-48.3853 60.48244,-20.35893 c 33.26534,-11.19742 61.38422,-20.01289 62.4864,-19.58994 3.19818,1.22725 57.90716,39.5925 59.1097,41.4513 0.59856,0.92518 2.37555,36.55755 3.94888,79.18306 2.5301,68.54639 2.61302,77.48279 0.71775,77.34409 -1.17857,-0.086 -50.9134,-13.5356 -110.52185,-29.88741 z"
       id="path6273"
       inkscape:connector-curvature="0"
       transform="scale(0.26458333)" />
    <path
       style="opacity:0.577;fill:#5d8aa8;fill-opacity:0.82352942;fill-rule:evenodd;stroke:none;stroke-width:4.28571415;stroke-miterlimit:4;stroke-dasharray:none;stroke-opacity:1"
       d="m 607.30178,1027.0338 c -2.54416,-5.5158 -3.06409,-13.2519 -5.68166,-84.53786 -1.58468,-43.15654 -2.66298,-78.68468 -2.39623,-78.95143 0.88467,-0.88467 188.37743,-91.77659 191.10046,-92.64085 2.59575,-0.82386 2.67215,2.52402 2.67215,117.10531 0,64.87438 -0.16072,117.95483 -0.35715,117.95643 -0.19643,0 -40.53571,6.1075 -89.64285,13.5684 -49.10715,7.4609 -90.09765,13.5667 -91.09,13.5684 -0.99235,0 -3.06448,-2.7291 -4.60472,-6.0684 z"
       id="path6275"
       inkscape:connector-curvature="0"
       transform="scale(0.26458333)" />
    <path
       style="opacity:0.577;fill:#5d8aa8;fill-opacity:0.59215689;fill-rule:evenodd;stroke:none;stroke-width:4.28571415;stroke-miterlimit:4;stroke-dasharray:none;stroke-opacity:1"
       d="m 569.33654,841.38699 c -15.6656,-10.93392 -29.36133,-20.39131 -30.43496,-21.01641 -2.27538,-1.32477 -22.27439,-140.0389 -20.45266,-141.86063 0.6041,-0.6041 32.63417,-15.83762 71.17794,-33.85227 l 70.07956,-32.7539 63.43076,14.85376 c 34.8869,8.16957 64.87717,15.20215 66.64503,15.62795 l 3.21429,0.77418 -0.01,61.7585 -0.01,61.7585 -58.91863,28.4945 c -32.40525,15.67198 -76.3156,36.95477 -97.57857,47.2951 l -38.65996,18.80058 -28.4829,-19.87986 z"
       id="path6277"
       inkscape:connector-curvature="0"
       transform="scale(0.26458333)" />
    <path
       style="opacity:0.577;fill:#5d8aa8;fill-opacity:0.48235294;fill-rule:evenodd;stroke:none;stroke-width:4.28571415;stroke-miterlimit:4;stroke-dasharray:none;stroke-opacity:1"
       d="m 379.58397,820.41299 c -17.98404,-21.11924 -32.62573,-38.95674 -32.5371,-39.6389 0.16735,-1.28807 82.13797,-141.536 85.02627,-145.47601 1.41887,-1.93551 6.98134,0.75222 41.63764,20.11891 22,12.29407 40.28402,22.60519 40.63114,22.9136 1.28668,1.14314 19.99906,139.71189 18.9892,140.61863 -1.24082,1.11415 -117.53568,39.87212 -119.62055,39.86635 -0.7856,-0.003 -16.14257,-17.28333 -34.1266,-38.40258 z"
       id="path6279"
       inkscape:connector-curvature="0"
       transform="scale(0.26458333)" />
    <path
       style="opacity:0.577;fill:#5d8aa8;fill-opacity:0.63921571;fill-rule:evenodd;stroke:none;stroke-width:4.28571415;stroke-miterlimit:4;stroke-dasharray:none;stroke-opacity:1"
       d="m 284.01861,776.67467 c -27.33069,-1.75553 -49.90637,-3.43753 -50.16818,-3.73779 -0.2618,-0.30026 -7.06184,-10.83164 -15.11119,-23.40307 l -14.63518,-22.85714 6.66757,-24.28572 c 3.66717,-13.35714 10.6965,-38.75 15.62074,-56.42857 l 8.95316,-32.14286 38.46834,-23.87531 c 21.15759,-13.13142 39.45095,-23.89927 40.65192,-23.92857 1.20096,-0.0293 25.11465,10.07174 53.14153,22.44674 l 50.95796,22.5 6.42967,10 6.42967,10 -2.4987,4.28571 c -1.37428,2.35715 -21.05534,35.94643 -43.73567,74.64286 l -41.23696,70.35714 -5.12125,-0.19078 c -2.81669,-0.105 -27.48273,-1.62713 -54.81343,-3.38264 z"
       id="path6281"
       inkscape:connector-curvature="0"
       transform="scale(0.26458333)" />
    <path
       style="opacity:0.577;fill:#5d8aa8;fill-opacity:0.6901961;fill-rule:evenodd;stroke:none;stroke-width:4.28571415;stroke-miterlimit:4;stroke-dasharray:none;stroke-opacity:1"
       d="M 3.3454017,621.02168 3.7107806,503.84221 17.282209,502.10509 c 7.464286,-0.95542 14.511712,-1.41038 15.660946,-1.01103 2.22891,0.77453 197.211385,110.45777 198.926285,111.90174 0.55868,0.47043 -5.94742,25.91964 -14.45802,56.55381 l -15.47381,55.69848 -14.8277,1.14795 c -8.15523,0.63137 -52.92069,3.5458 -99.478794,6.47653 l -84.6510932,5.32858 z"
       id="path6283"
       inkscape:connector-curvature="0"
       transform="scale(0.26458333)" />
    <path
       style="opacity:0.577;fill:#5d8aa8;fill-opacity:0.22745098;fill-rule:evenodd;stroke:none;stroke-width:4.28571415;stroke-miterlimit:4;stroke-dasharray:none;stroke-opacity:1"
       d="M 134.78969,555.49502 C 80.383085,524.71635 36.025942,499.10062 36.218258,498.57118 36.658019,497.36051 222.56285,355.80499 223.73352,355.78941 c 0.76797,-0.0102 77.82796,69.87751 77.83887,70.59412 0.003,0.16122 2.56768,30.80292 5.70049,68.09265 3.13281,37.28973 5.22009,68.25494 4.63839,68.81157 -1.16645,1.11619 -77.63108,48.45556 -77.98186,48.2787 -0.12029,-0.0606 -44.73312,-25.29277 -99.13972,-56.07143 z"
       id="path6285"
       inkscape:connector-curvature="0"
       transform="scale(0.26458333)" />
    <path
       style="opacity:0.577;fill:#5d8aa8;fill-opacity:0.43529412;fill-rule:evenodd;stroke:none;stroke-width:4.28571415;stroke-miterlimit:4;stroke-dasharray:none;stroke-opacity:1"
       d="m 367.81662,585.96027 c -42.53532,-18.76463 -51.42208,-23.17603 -52.26848,-25.94609 -0.93597,-3.06322 -11.20411,-123.53721 -11.14772,-130.79386 0.0227,-2.91785 6.08297,-5.16731 76.01233,-28.21429 41.79323,-13.77401 76.98966,-25.01931 78.21429,-24.98957 1.22463,0.0297 21.28597,9.51189 44.58077,21.07143 l 42.35416,21.01735 -63.24832,95.2318 -63.24833,95.23181 z"
       id="path6287"
       inkscape:connector-curvature="0"
       transform="scale(0.26458333)" />
    <path
       style="opacity:0.577;fill:#5d8aa8;fill-opacity:0.2;fill-rule:evenodd;stroke:none;stroke-width:4.28571415;stroke-miterlimit:4;stroke-dasharray:none;stroke-opacity:1"
       d="m 474.47867,653.11801 -40.66068,-22.79436 -6.28097,-10.03658 -6.28098,-10.03658 10.47214,-16.07262 c 5.75968,-8.83995 34.13222,-51.75121 63.05009,-95.35835 37.75574,-56.93435 53.48818,-79.52989 55.80679,-80.15187 3.00303,-0.80558 6.85068,5.82968 55.01621,94.87537 28.48304,52.65785 51.28125,96.22507 50.66271,96.81607 -1.34076,1.28106 -138.89054,65.61445 -140.21145,65.57829 -0.50225,-0.0143 -19.21048,-10.28247 -41.57386,-22.81937 z"
       id="path6289"
       inkscape:connector-curvature="0"
       transform="scale(0.26458333)" />
    <path
       style="opacity:0.577;fill:#5d8aa8;fill-opacity:0.33725491;fill-rule:evenodd;stroke:none;stroke-width:4.28571415;stroke-miterlimit:4;stroke-dasharray:none;stroke-opacity:1"
       d="m 724.17257,624.79735 -63.82394,-15.11003 -51.53321,-95.29428 c -28.34326,-52.41186 -51.53321,-95.95969 -51.53321,-96.77294 0,-0.81325 37.34577,-31.25107 82.9906,-67.63961 l 82.99059,-66.16097 9.50941,0.0669 c 5.23017,0.0368 20.92011,0.58806 34.86654,1.22498 l 25.35715,1.15805 v 176.98929 c 0,167.67376 -0.13158,176.98033 -2.5,176.81895 -1.375,-0.0937 -31.22078,-6.96987 -66.32393,-15.28039 z"
       id="path6291"
       inkscape:connector-curvature="0"
       transform="scale(0.26458333)" />
    <path
       style="opacity:0.577;fill:#5d8aa8;fill-opacity:0.16470589;fill-rule:evenodd;stroke:none;stroke-width:4.28571415;stroke-miterlimit:4;stroke-dasharray:none;stroke-opacity:1"
       d="m 503.4429,394.54484 -43.12502,-21.1856 -1.46206,-5.48415 c -2.70306,-10.13914 -41.57412,-177.22008 -41.52818,-178.5021 0.025,-0.69727 0.95717,-2.47171 2.07151,-3.94322 1.93708,-2.55795 8.53917,-0.55824 150.3117,45.5279 81.5571,26.51185 149.07977,48.84026 150.05036,49.61868 2.58119,2.07011 -164.61527,135.38739 -169.62186,135.25121 -1.96428,-0.0534 -22.97769,-9.63065 -46.69645,-21.28272 z"
       id="path6293"
       inkscape:connector-curvature="0"
       transform="scale(0.26458333)" />
    <path
       style="opacity:0.577;fill:#5d8aa8;fill-opacity:0.29019609;fill-rule:evenodd;stroke:none;stroke-width:4.28571415;stroke-miterlimit:4;stroke-dasharray:none;stroke-opacity:1"
       d="m 264.18071,388.61116 -39.04136,-35.61917 -1.1972,-12.54151 -1.19721,-12.54152 31.88248,-48.66371 31.88248,-48.66371 63.58171,-20.11402 c 34.96994,-11.06272 63.97864,-19.6556 64.46379,-19.0953 1.16585,1.34647 42.89632,180.61112 42.20488,181.30256 -0.29407,0.29408 -34.96047,12.01437 -77.03644,26.04511 l -76.50177,25.51043 z"
       id="path6295"
       inkscape:connector-curvature="0"
       transform="scale(0.26458333)" />
    <path
       style="opacity:0.577;fill:#5d8aa8;fill-opacity:0.38431373;fill-rule:evenodd;stroke:none;stroke-width:4.28571415;stroke-miterlimit:4;stroke-dasharray:none;stroke-opacity:1"
       d="M 2.9964948,359.49332 V 217.30998 l 25.3571432,0.92766 25.357143,0.92765 12.142857,7.77258 c 6.678571,4.27492 44.104972,28.78641 83.169772,54.46997 l 71.02693,46.6974 0.69123,5.71428 c 0.38018,3.14286 1.01821,8.67623 1.41784,12.29638 l 0.72661,6.5821 -95.30191,72.62078 -95.301901,72.62078 -13.571428,1.81713 c -7.464286,0.99943 -14.0535719,1.84029 -14.6428576,1.86856 -0.5892857,0.0283 -1.0714286,-63.93109 -1.0714286,-142.13193 z"
       id="path6297"
       inkscape:connector-curvature="0"
       transform="scale(0.26458333)" />
    <path
       style="opacity:0.577;fill:#5d8aa8;fill-opacity:0.17647059;fill-rule:evenodd;stroke:none;stroke-width:4.28571415;stroke-miterlimit:4;stroke-dasharray:none;stroke-opacity:1"
       d="M 139.42507,272.23354 C 94.639352,242.77926 58.190468,218.22949 58.427547,217.67849 c 0.237079,-0.551 21.451365,-20.86929 47.142853,-45.15174 25.6915,-24.28245 56.75374,-53.68855 69.02721,-65.34689 L 196.913,85.982878 240.19194,157.04406 c 23.80343,39.08365 43.26937,71.70403 43.25767,72.48975 -0.0177,1.19113 -59.00296,92.24904 -61.7133,95.26934 -0.48547,0.54099 -37.52553,-23.11533 -82.31124,-52.56961 z"
       id="path6299"
       inkscape:connector-curvature="0"
       transform="scale(0.26458333)" />
    <path
       style="opacity:0.577;fill:#5d8aa8;fill-opacity:0.07058824;fill-rule:evenodd;stroke:none;stroke-width:4.28571415;stroke-miterlimit:4;stroke-dasharray:none;stroke-opacity:1"
       d="M 24.425066,215.91785 C 13.817923,215.34226 4.6572091,214.79539 4.0679234,214.70256 3.4786377,214.60975 2.9964948,166.96238 2.9964948,108.81952 V 3.1052361 h 99.9726752 99.97267 l -0.73296,6.0714286 c -0.40311,3.3392853 -1.96427,21.4568513 -3.46921,40.2612573 l -2.73628,34.189828 -5.43202,5.235179 c -2.9876,2.879349 -34.62238,32.815351 -70.29948,66.524451 -63.098858,59.61824 -65.026871,61.29321 -70.714284,61.43314 -3.215754,0.0791 -14.525397,-0.32708 -25.13254,-0.90267 z"
       id="path6301"
       inkscape:connector-curvature="0"
       transform="scale(0.26458333)" />
    <path
       style="opacity:0.577;fill:#5d8aa8;fill-opacity:0.17647059;fill-rule:evenodd;stroke:none;stroke-width:4.28571415;stroke-miterlimit:4;stroke-dasharray:none;stroke-opacity:1"
       d="m 281.85566,220.60524 c -2.3627,-3.73215 -22.11212,-36.03572 -43.88759,-71.78572 L 198.3763,83.819522 201.42564,45.962379 c 1.67714,-20.821429 3.03811,-38.9821429 3.02438,-40.3571429 -0.0235,-2.3519387 4.73416,-2.4983834 80.33219,-2.4727033 l 80.35714,0.027297 28.71763,81.4622802 28.71764,81.46228 -1.57478,7.45009 c -2.83907,13.43136 0.17687,11.95243 -69.16479,33.91656 -34.62312,10.96695 -63.56593,19.93991 -64.31735,19.93991 -0.75142,0 -3.29934,-3.05357 -5.66204,-6.78571 z"
       id="path6303"
       inkscape:connector-curvature="0"
       transform="scale(0.26458333)" />
    <path
       style="opacity:0.577;fill:#5d8aa8;fill-opacity:0.02745098;fill-rule:evenodd;stroke:none;stroke-width:4.28571415;stroke-miterlimit:4;stroke-dasharray:none;stroke-opacity:1"
       d="m 423.38379,160.70115 c -0.56387,-1.42776 -13.32782,-37.3102 -28.36432,-79.738771 L 367.68037,3.8195218 483.42522,3.453929 c 63.65966,-0.2010762 116.0465,-0.06394 116.41519,0.3047477 0.36869,0.3686873 -0.85966,12.7474893 -2.72964,27.5084493 l -3.39999,26.83811 -79.28571,49.539054 c -97.01514,60.61669 -89.73194,56.3722 -91.04128,53.05686 z"
       id="path6305"
       inkscape:connector-curvature="0"
       transform="scale(0.26458333)" />
    <path
       style="opacity:0.577;fill:#5d8aa8;fill-opacity:0.17254902;fill-rule:evenodd;stroke:none;stroke-width:4.28571415;stroke-miterlimit:4;stroke-dasharray:none;stroke-opacity:1"
       d="m 568.37945,228.31655 -145.33134,-47.35417 0.1166,-4.28572 c 0.0641,-2.35714 0.53465,-5.69705 1.04561,-7.42201 0.65978,-2.22733 24.94309,-18.11738 83.78618,-54.8264 45.57142,-28.429554 83.82142,-51.947702 85,-52.262551 1.54844,-0.413658 18.88544,28.914851 62.5,105.729511 33.19642,58.46607 60.35714,106.69913 60.35714,107.18457 0,0.48543 -0.48214,0.81698 -1.07143,0.73677 -0.58929,-0.0801 -66.47053,-21.4552 -146.40276,-47.5 z"
       id="path6307"
       inkscape:connector-curvature="0"
       transform="scale(0.26458333)" />
    <path
       style="opacity:0.577;fill:#5d8aa8;fill-opacity:0.07058824;fill-rule:evenodd;stroke:none;stroke-width:4.28571415;stroke-miterlimit:4;stroke-dasharray:none;stroke-opacity:1"
       d="m 755.53551,282.53484 c -28.00999,-1.4193 -31.29639,-1.85073 -33.74267,-4.4296 -2.0351,-2.1454 -115.77499,-201.055477 -124.19377,-217.191978 -1.11937,-2.145544 -0.61334,-9.998073 1.93327,-30 1.89725,-14.901557 3.45282,-27.2544544 3.45684,-27.450883 0.004,-0.1964286 42.75732,-0.3571429 95.00732,-0.3571429 h 95 V 143.81952 284.53381 l -3.21429,-0.21326 c -1.76786,-0.11729 -17.17887,-0.92086 -34.2467,-1.78571 z"
       id="path6309"
       inkscape:connector-curvature="0"
       transform="scale(0.26458333)" />
  </g>
</svg>
